<svg viewBox="0 0 700 700" xmlns="http://www.w3.org/2000/svg">
<rect x="0" y="0" width="700" height="700" fill="yellow" />
<path fill="black" d="
M 130,645
L 117,465
L 183,465
Q 201,538 239,575
Q 278,612 333,612
Q 378,612 407,586
Q 437,560 437,513
Q 437,483 417,463
Q 398,442 368,426
Q 338,410 306,396
Q 258,376 214,350
Q 171,324 143,287
Q 116,249 116,195
Q 116,149 137,114
Q 159,79 195,56
Q 231,32 273,20
Q 316,8 358,8
Q 410,8 452,18
Q 494,27 537,48
L 547,223
L 482,223
Q 463,152 433,120
Q 403,87 361,87
Q 316,87 290,111
Q 265,135 265,177
Q 265,203 278,219
Q 291,234 319,248
Q 347,262 393,283
Q 440,303 484,329
Q 528,354 556,392
Q 585,429 585,486
Q 585,537 555,585
Q 526,632 465,663
Q 404,693 310,693
Q 287,693 250,687
Q 214,681 180,670
Q 147,659 130,645
Z
"/>
</svg>
